<svg xmlns="http://www.w3.org/2000/svg" xmlns:xlink="http://www.w3.org/1999/xlink" version="1.1" x="0px" y="0px" viewBox="0 0 100 125" enable-background="new 0 0 100 100" xml:space="preserve"><path d="M50,6C25.7,6,6,25.7,6,50s19.7,44,44,44s44-19.7,44-44S74.3,6,50,6z M50,91C27.4,91,9,72.6,9,50S27.4,9,50,9s41,18.4,41,41  S72.6,91,50,91z"/><path d="M63.9,43.9L50,57.9L36.1,43.9c-0.6-0.6-1.5-0.6-2.1,0c-0.6,0.6-0.6,1.5,0,2.1l15,15c0.3,0.3,0.7,0.4,1.1,0.4  s0.8-0.1,1.1-0.4l15-15c0.6-0.6,0.6-1.5,0-2.1C65.5,43.4,64.5,43.4,63.9,43.9z"/></svg>